<svg xmlns="http://www.w3.org/2000/svg" viewBox="0 0 568.96 120" fill="#04080C" role="img" aria-label="quidproquo">
  <title>quidproquo</title>
  <g transform="scale(0.233445)">
    <path d="M271.42,489.64h-10.72c-128.68,0-235.74-102.93-236.29-231.61S128.97,23.86,258.03,24.41c128.68.55,231.6,107.61,231.6,236.29v11.61c0,.09-.07.16-.16.16h-109.69c-.09,0-.16-.07-.16-.16v-12.61c0-65.9-53.82-123.71-119.7-125.24-69.89-1.62-127.08,55.57-125.46,125.46,1.53,65.89,59.34,119.71,125.24,119.71h11.72c.09,0,.16.07.16.16v109.69c0,.09-.07.16-.16.16Z"/>
  <rect x="268.31" y="273.22" width="106.91" height="106.91"/>
  <rect x="375.62" y="380.53" width="106.91" height="106.91"/>
  </g>
  <g transform="translate(164.00 22.00) scale(0.339817)">
    <path d="M107.49,211.62v-56.69h-3.96c-1.48,2.5-3.61,4.96-6.4,7.4-2.79,2.42-6.44,4.4-10.92,5.95-4.48,1.54-10.03,2.32-16.64,2.32-8.82,0-16.99-2.17-24.48-6.51-7.5-4.34-13.53-10.7-18.1-19.08-4.55-8.38-6.84-18.52-6.84-30.43v-3.54c0-11.91,2.29-22.05,6.84-30.43,4.56-8.38,10.63-14.74,18.2-19.08,7.57-4.34,15.7-6.51,24.38-6.51,9.99,0,17.6,1.65,22.83,4.96,5.22,3.3,9.07,7.09,11.58,11.35h3.96v-13.23h27.36v153.52h-27.79ZM77.94,146.33c8.68,0,15.83-2.75,21.5-8.28,5.65-5.51,8.49-13.56,8.49-24.15v-2.21c0-10.59-2.86-18.64-8.6-24.15-5.73-5.52-12.87-8.28-21.39-8.28s-15.66,2.75-21.39,8.28c-5.73,5.51-8.61,13.56-8.61,24.15v2.21c0,10.59,2.87,18.64,8.61,24.15,5.73,5.52,12.87,8.28,21.39,8.28Z"/>
  <path d="M199.03,169.26c-8.53,0-15.99-1.94-22.39-5.84-6.4-3.9-11.36-9.3-14.89-16.22-3.53-6.91-5.3-14.85-5.3-23.82V58.1h27.79v63.08c0,8.24,2.02,14.41,6.07,18.52,4.04,4.12,9.82,6.19,17.31,6.19,8.53,0,15.15-2.83,19.85-8.5,4.71-5.65,7.07-13.56,7.07-23.71v-55.58h27.79v109.4h-27.36v-14.33h-3.96c-1.77,3.67-5.08,7.28-9.93,10.8-4.86,3.53-12.21,5.3-22.06,5.3Z"/>
  <path d="M298.29,45.3c-5,0-9.23-1.61-12.69-4.86-3.45-3.23-5.18-7.49-5.18-12.79s1.73-9.55,5.18-12.8c3.46-3.23,7.69-4.84,12.69-4.84s9.41,1.61,12.79,4.84c3.38,3.25,5.07,7.5,5.07,12.8s-1.69,9.55-5.07,12.79c-3.38,3.25-7.65,4.86-12.79,4.86ZM284.38,167.49V58.1h27.79v109.4h-27.79Z"/>
  <path d="M378.34,170.58c-8.68,0-16.8-2.17-24.38-6.51s-13.64-10.7-18.19-19.08c-4.56-8.38-6.84-18.52-6.84-30.43v-3.54c0-11.91,2.28-22.05,6.84-30.43,4.55-8.38,10.58-14.74,18.08-19.08,7.5-4.34,15.66-6.51,24.48-6.51,6.63,0,12.17.77,16.66,2.32s8.12,3.49,10.91,5.84,4.94,4.86,6.4,7.5h3.98V13.1h27.78v154.39h-27.34v-13.23h-3.98c-2.5,4.11-6.36,7.86-11.58,11.24s-12.83,5.07-22.83,5.07ZM386.73,146.33c8.53,0,15.66-2.75,21.39-8.28,5.73-5.51,8.61-13.56,8.61-24.15v-2.21c0-10.59-2.83-18.64-8.49-24.15-5.67-5.52-12.84-8.28-21.51-8.28s-15.66,2.75-21.39,8.28c-5.73,5.51-8.6,13.56-8.6,24.15v2.21c0,10.59,2.86,18.64,8.6,24.15,5.73,5.52,12.87,8.28,21.39,8.28Z"/>
  <path d="M470.11,211.62V60.29h12.79v19.64h2.65c3.09-5.88,7.9-11.14,14.45-15.77,6.55-4.64,15.7-6.96,27.46-6.96,9.55,0,18.23,2.25,26.03,6.73,7.8,4.48,14.01,10.84,18.64,19.08s6.95,18.08,6.95,29.55v2.65c0,11.32-2.28,21.14-6.84,29.44-4.56,8.32-10.74,14.72-18.52,19.2-7.8,4.48-16.55,6.72-26.25,6.72-7.8,0-14.45-1.06-19.96-3.19-5.52-2.13-10.01-4.88-13.46-8.28-3.46-3.38-6.13-6.84-8.05-10.36h-2.65v62.87h-13.23ZM524.37,158.67c12.2,0,22.09-3.9,29.66-11.68,7.58-7.8,11.36-18.53,11.36-32.21v-1.76c0-13.68-3.78-24.42-11.36-32.21-7.57-7.78-17.46-11.68-29.66-11.68s-21.91,3.9-29.56,11.68c-7.64,7.8-11.47,18.53-11.47,32.21v1.76c0,13.68,3.83,24.42,11.47,32.21,7.65,7.78,17.5,11.68,29.56,11.68Z"/>
  <path d="M603.77,167.49V60.29h12.79v13.46h2.65c2.06-4.86,5.11-8.38,9.15-10.59s9.67-3.31,16.87-3.31h12.57v12.36h-14.12c-8.09,0-14.56,2.28-19.41,6.84-4.84,4.55-7.28,11.68-7.28,21.39v67.05h-13.23Z"/>
  <path d="M721.33,170.58c-10.88,0-20.4-2.32-28.55-6.95-8.17-4.63-14.49-11.1-18.97-19.41-4.48-8.3-6.73-17.98-6.73-29.01v-2.65c0-11.03,2.25-20.69,6.73-29.01,4.48-8.3,10.8-14.77,18.97-19.4,8.16-4.64,17.67-6.96,28.55-6.96s20.41,2.32,28.57,6.96c8.17,4.63,14.49,11.1,18.97,19.4,4.48,8.32,6.73,17.98,6.73,29.01v2.65c0,11.03-2.25,20.7-6.73,29.01-4.48,8.32-10.8,14.78-18.97,19.41-8.16,4.63-17.68,6.95-28.57,6.95ZM721.33,158.67c12.65,0,22.65-4,30-12.01,7.34-8.02,11.03-18.64,11.03-31.88v-1.76c0-13.24-3.69-23.86-11.03-31.88-7.36-8.01-17.35-12.01-30-12.01s-22.46,4-29.88,12.01c-7.42,8.02-11.14,18.64-11.14,31.88v1.76c0,13.24,3.71,23.86,11.14,31.88,7.42,8.01,17.39,12.01,29.88,12.01Z"/>
  <path d="M880.59,211.62v-56.69h-3.98c-1.46,2.5-3.61,4.96-6.4,7.4-2.79,2.42-6.43,4.4-10.91,5.95-4.48,1.54-10.03,2.32-16.66,2.32-8.82,0-16.98-2.17-24.48-6.51-7.5-4.34-13.53-10.7-18.08-19.08-4.56-8.38-6.84-18.52-6.84-30.43v-3.54c0-11.91,2.28-22.05,6.84-30.43,4.55-8.38,10.62-14.74,18.19-19.08,7.57-4.34,15.7-6.51,24.38-6.51,10.01,0,17.62,1.65,22.83,4.96,5.22,3.3,9.07,7.09,11.58,11.35h3.98v-13.23h27.34v153.52h-27.78ZM851.03,146.33c8.68,0,15.85-2.75,21.51-8.28,5.65-5.51,8.49-13.56,8.49-24.15v-2.21c0-10.59-2.87-18.64-8.61-24.15-5.73-5.52-12.87-8.28-21.39-8.28s-15.66,2.75-21.39,8.28c-5.73,5.51-8.6,13.56-8.6,24.15v2.21c0,10.59,2.86,18.64,8.6,24.15,5.73,5.52,12.87,8.28,21.39,8.28Z"/>
  <path d="M974.32,169.26c-8.53,0-15.99-1.94-22.39-5.84-6.4-3.9-11.36-9.3-14.89-16.22-3.53-6.91-5.3-14.85-5.3-23.82V58.1h27.79v63.08c0,8.24,2.02,14.41,6.07,18.52,4.04,4.12,9.82,6.19,17.31,6.19,8.53,0,15.15-2.83,19.85-8.5,4.71-5.65,7.07-13.56,7.07-23.71v-55.58h27.79v109.4h-27.36v-14.33h-3.96c-1.77,3.67-5.08,7.28-9.93,10.8-4.86,3.53-12.21,5.3-22.06,5.3Z"/>
  <path d="M1111.74,170.58c-10.88,0-20.66-2.2-29.34-6.61-8.69-4.42-15.51-10.8-20.52-19.19s-7.5-18.45-7.5-30.22v-3.54c0-11.76,2.5-21.83,7.5-30.22,5-8.38,11.83-14.78,20.52-19.19,8.68-4.42,18.45-6.61,29.34-6.61s20.65,2.2,29.32,6.61c8.68,4.4,15.51,10.8,20.52,19.19,5,8.38,7.5,18.45,7.5,30.22v3.54c0,11.76-2.5,21.83-7.5,30.22s-11.84,14.77-20.52,19.19c-8.68,4.42-18.45,6.61-29.32,6.61ZM1111.74,145.89c8.52,0,15.58-2.77,21.17-8.28,5.59-5.51,8.38-13.41,8.38-23.71v-2.21c0-10.28-2.75-18.2-8.28-23.71-5.51-5.51-12.6-8.28-21.28-8.28s-15.59,2.77-21.18,8.28-8.38,13.42-8.38,23.71v2.21c0,10.3,2.79,18.2,8.38,23.71,5.59,5.51,12.64,8.28,21.18,8.28Z"/>
  </g>
</svg>
